<svg id="Layer_1" height="512" viewBox="0 0 512 512" width="512" xmlns="http://www.w3.org/2000/svg" data-name="Layer 1"><path d="m71.784 161.454c0-47.454 36.608-86.054 81.605-86.054s81.6 38.606 81.6 86.059a6 6 0 0 0 12 0c0-54.07-41.99-98.059-93.6-98.059-51.442 0-93.32 43.7-93.6 97.521-.01.139-.021.278-.021.419v275.27h-37.768a6 6 0 0 0 0 12h93.75a6 6 0 0 0 0-12h-43.98v-274.866c.004-.097.014-.192.014-.29z"/><path d="m242.088 228.568a9.941 9.941 0 0 0 8.282-4.691h-16.565a9.941 9.941 0 0 0 8.283 4.691z"/><path d="m281.867 208.5a40.875 40.875 0 0 0 -81.75 0v3.375h81.75zm-50.511-19.4a40.9 40.9 0 0 0 -10.656 11.077 6 6 0 1 1 -10.051-6.557 52.855 52.855 0 0 1 13.765-14.306 6 6 0 0 1 6.939 9.79z"/><path d="m467.663 304.2a13.275 13.275 0 0 0 -13.451-13.06h-109.794a13.3 13.3 0 0 0 -9.5 3.9 13.616 13.616 0 0 0 -3.906 9.764l-.012 70.181 118.485.033v-2.35a28.838 28.838 0 0 1 18.181-26.642z"/><path d="m201.713 374.949 117.281.032-.027-70.782a13.275 13.275 0 0 0 -13.451-13.062h-110.416a13.276 13.276 0 0 0 -13.452 13.06v41.144a28.884 28.884 0 0 1 20.065 27.327z"/><path d="m478.741 355.876a17.05 17.05 0 0 0 -17.259 16.792v63.937h34.518v-63.937a17.049 17.049 0 0 0 -17.259-16.792z"/><path d="m324.998 386.983h-.002-.001-.002l-123.28-.034v35.663l247.769.076v-35.67l-124.481-.035z"/><path d="m172.454 355.876a17.051 17.051 0 0 0 -17.26 16.792v63.937h34.519v-63.937a17.049 17.049 0 0 0 -17.259-16.792z"/></svg>